<?xml version="1.0" encoding="utf-8"?>
<!-- Generator: Adobe Illustrator 22.0.1, SVG Export Plug-In . SVG Version: 6.00 Build 0)  -->
<svg version="1.1" id="Ebene_1" xmlns="http://www.w3.org/2000/svg" xmlns:xlink="http://www.w3.org/1999/xlink" x="0px" y="0px"
	 viewBox="0 0 260.7 16.5" style="enable-background:new 0 0 260.7 16.5;" xml:space="preserve">
<style type="text/css">
	.st0{fill:#264597;}
</style>
<g>
	<g>
		<path class="st0" d="M153.7,16.5c-2.7,0-5.4-0.9-7.4-2.6l-10.5-9c-3-2.5-8-2.5-11,0l-10.5,9c-4.1,3.5-10.8,3.5-14.9,0L89,4.9
			c-3-2.5-8-2.5-11,0l-10.5,9c-4.1,3.5-10.8,3.5-14.9,0l-10.5-9c-3-2.5-8-2.5-11,0l-10.5,9c-4.1,3.5-10.8,3.5-14.9,0L0.5,9.4
			c-0.6-0.5-0.7-1.5-0.2-2.1c0.5-0.6,1.5-0.7,2.1-0.2l5.2,4.5c3,2.5,8,2.5,11,0l10.5-9c4.1-3.5,10.8-3.5,14.9,0l10.5,9
			c3,2.5,8,2.5,11,0l10.5-9c4.1-3.5,10.8-3.5,14.9,0l10.5,9c3,2.5,8,2.5,11,0l10.5-9c4.1-3.5,10.8-3.5,14.9,0l10.5,9
			c3,2.5,8,2.5,11,0l10.5-9c4.1-3.5,10.8-3.5,14.9,0l10.5,9c3,2.5,8,2.5,11,0l10.5-9c4.1-3.5,10.8-3.5,14.9,0l10.5,9
			c3,2.5,8,2.5,11,0l5.2-4.5c0.6-0.5,1.6-0.5,2.1,0.2s0.5,1.6-0.2,2.1l-5.2,4.5c-4.1,3.5-10.8,3.5-14.9,0l-10.5-9c-3-2.5-8-2.5-11,0
			l-10.5,9c-4.1,3.5-10.8,3.5-14.9,0l-10.5-9c-3-2.5-8-2.5-11,0l-10.5,9C159.1,15.6,156.4,16.5,153.7,16.5z"/>
	</g>
</g>
</svg>
